HIERARCHY
ROOT Hips
{
	OFFSET 0.000000 88.474243 0.000000
	CHANNELS 6 Xposition Yposition Zposition Zrotation Yrotation Xrotation 
	JOINT Hips_Spine
	{
		OFFSET 0.000000 0.000000 0.000000
		CHANNELS 3 Zrotation Yrotation Xrotation
		JOINT Spine
		{
			OFFSET 0.005100 8.711998 -0.691000
			CHANNELS 3 Zrotation Yrotation Xrotation
			JOINT Spine1
			{
				OFFSET -0.009200 8.660301 -1.275000
				CHANNELS 3 Zrotation Yrotation Xrotation
				JOINT Spine2
				{
					OFFSET 0.006300 9.852501 -1.857000
					CHANNELS 3 Zrotation Yrotation Xrotation
					JOINT Spine2_Neck
					{
						OFFSET 0.000000 0.000000 0.000000
						CHANNELS 3 Zrotation Yrotation Xrotation
						JOINT Neck
						{
							OFFSET 0.016300 11.420799 -0.263300
							CHANNELS 3 Zrotation Yrotation Xrotation
							End Site #name: Head
							{
								OFFSET -0.019200 9.262405 2.362500
							}
						}
					}
					JOINT Spine2_LeftShoulder
					{
						OFFSET 0.000000 0.000000 0.000000
						CHANNELS 3 Zrotation Yrotation Xrotation
						JOINT LeftShoulder
						{
							OFFSET 5.616900 6.732201 -0.345700
							CHANNELS 3 Zrotation Yrotation Xrotation
							JOINT LeftArm
							{
								OFFSET 10.664888 -0.183372 -2.440700
								CHANNELS 3 Zrotation Yrotation Xrotation
								JOINT LeftForeArm
								{
									OFFSET 27.459126 0.000000 0.000000
									CHANNELS 3 Zrotation Yrotation Xrotation
									End Site #name: LeftHand
									{
										OFFSET 21.306858 0.000000 0.000000
									}
								}
							}
						}
					}
					JOINT Spine2_RightShoulder
					{
						OFFSET 0.000000 0.000000 0.000000
						CHANNELS 3 Zrotation Yrotation Xrotation
						JOINT RightShoulder
						{
							OFFSET -5.580300 6.737503 -0.344400
							CHANNELS 3 Zrotation Yrotation Xrotation
							JOINT RightArm
							{
								OFFSET -10.679335 -0.188484 -2.383900
								CHANNELS 3 Zrotation Yrotation Xrotation
								JOINT RightForeArm
								{
									OFFSET -27.503529 0.000000 0.000000
									CHANNELS 3 Zrotation Yrotation Xrotation
									End Site #name: RightHand
									{
										OFFSET -21.306808 0.000000 0.000000
									}
								}
							}
						}
					}
				}
			}
		}
	}
	JOINT Hips_LeftUpLeg
	{
		OFFSET 0.000000 0.000000 0.000000
		CHANNELS 3 Zrotation Yrotation Xrotation
		JOINT LeftUpLeg
		{
			OFFSET 6.857700 -6.739601 0.312100
			CHANNELS 3 Zrotation Yrotation Xrotation
			JOINT LeftLeg
			{
				OFFSET -0.367590 -34.731552 -4.572400
				CHANNELS 3 Zrotation Yrotation Xrotation
				End Site #name: LeftFoot
				{
					OFFSET 0.367590 -34.656704 -6.067400
				}
			}
		}
	}
	JOINT Hips_RightUpLeg
	{
		OFFSET 0.000000 0.000000 0.000000
		CHANNELS 3 Zrotation Yrotation Xrotation
		JOINT RightUpLeg
		{
			OFFSET -6.876100 -6.733299 0.301000
			CHANNELS 3 Zrotation Yrotation Xrotation
			JOINT RightLeg
			{
				OFFSET 0.347353 -34.795158 -4.515900
				CHANNELS 3 Zrotation Yrotation Xrotation
				End Site #name: RightFoot
				{
					OFFSET -0.347353 -34.589367 -6.070300
				}
			}
		}
	}
}
MOTION
Frames: 12
Frame Time: 0.041667
2.769804 0.920167 -5.666791 174.814166 -23.781476 -177.923399 0.000000 -0.000000 0.000000 -6.725499 0.795145 4.992579 -0.191261 -1.692750 1.044691 0.000000 0.000000 0.000000 0.591293 -1.514958 1.615026 1.509128 -33.707614 -1.269515 -0.317723 -1.239632 -0.507522 1.132543 -4.361651 -0.015449 -80.847367 -21.506069 12.906105 7.098050 -34.995295 -0.061837 -0.179846 -2.267970 -0.048002 17.035921 15.043930 4.295218 54.154733 15.789965 10.338712 12.559411 71.259475 12.726634 0.000000 0.000000 -0.000000 -3.377167 14.268417 -6.365549 0.422957 -35.594466 -14.986064 0.000000 0.000000 -0.000000 -5.926045 -55.075633 -10.580554 -12.961810 -5.950132 19.428116 
2.833115 0.982808 -5.815079 174.849600 -23.590781 -177.944133 0.000000 -0.000000 0.000000 -6.953427 0.814994 5.216389 -0.206921 -1.625297 1.029915 0.000000 0.000000 0.000000 0.565849 -1.479520 1.613505 1.313197 -32.977908 -1.377799 -0.330791 -1.190162 -0.486527 1.116407 -4.753042 0.099936 -80.678039 -21.679783 13.042635 6.961544 -36.688720 -0.371118 -0.181043 -2.205278 -0.083947 16.713164 15.261368 4.264637 54.206405 15.638956 10.842221 10.610621 71.387092 11.123573 0.000000 0.000000 -0.000000 -3.405881 14.166509 -6.878883 0.255920 -35.288516 -14.310356 0.000000 0.000000 -0.000000 -5.857988 -54.987859 -10.487790 -12.460304 -4.786385 19.262402 
2.900094 1.046100 -5.956035 174.841581 -23.579906 -177.949241 0.000000 -0.000000 0.000000 -7.175336 0.824441 5.460071 -0.224849 -1.564254 1.037342 0.000000 0.000000 0.000000 0.544914 -1.446136 1.627610 1.085443 -32.106623 -1.490947 -0.341656 -1.140663 -0.453691 1.097999 -5.171106 0.230816 -80.467283 -21.837906 13.128175 6.870357 -38.683836 -0.712020 -0.178967 -2.144030 -0.105953 16.354798 15.449489 4.231827 54.259411 15.481747 11.390414 8.670672 71.452415 9.556904 0.000000 0.000000 -0.000000 -3.424748 14.027016 -7.404311 0.051662 -35.006238 -13.561818 0.000000 0.000000 -0.000000 -5.776128 -54.858395 -10.434205 -12.117906 -3.746676 19.152302 
2.970883 1.108663 -6.090710 174.788854 -23.581208 -177.938622 0.000000 -0.000000 0.000000 -7.384757 0.854794 5.695817 -0.243410 -1.503714 1.056497 0.000000 0.000000 0.000000 0.524482 -1.410904 1.643212 0.801107 -31.146004 -1.671622 -0.349349 -1.091207 -0.416317 1.072903 -5.597557 0.370096 -80.234112 -21.982744 13.132969 6.850363 -40.945199 -1.069025 -0.173314 -2.084785 -0.110730 15.977363 15.637256 4.208255 54.306844 15.335944 11.903644 6.832452 71.548381 8.097220 0.000000 0.000000 -0.000000 -3.438123 13.856285 -7.958767 -0.186289 -34.686225 -12.739597 0.000000 0.000000 -0.000000 -5.681912 -54.789221 -10.408081 -11.884674 -2.757492 19.124457 
3.045496 1.170395 -6.219864 174.687947 -23.583265 -177.899603 0.000000 -0.000000 0.000000 -7.582036 0.910146 5.898262 -0.259426 -1.443814 1.078541 0.000000 0.000000 0.000000 0.510755 -1.374790 1.659003 0.546986 -30.157751 -1.963512 -0.354476 -1.040360 -0.379246 1.044315 -5.996465 0.508034 -79.991787 -22.131855 13.062821 6.936111 -43.453356 -1.431262 -0.164332 -2.026331 -0.111808 15.612157 15.847835 4.200392 54.327425 15.228921 12.303809 4.649129 71.703747 6.332217 0.000000 0.000000 -0.000000 -3.451393 13.669301 -8.569598 -0.471156 -34.299493 -11.823639 0.000000 0.000000 -0.000000 -5.605425 -54.821127 -10.394406 -11.658011 -1.733899 19.139547 
3.124086 1.231505 -6.344917 174.544266 -23.503862 -177.835841 -0.000000 -0.000000 0.000000 -7.783870 0.993463 6.103292 -0.274504 -1.385112 1.095112 0.000000 0.000000 0.000000 0.504362 -1.337020 1.660451 0.368136 -29.178060 -2.446751 -0.356978 -0.986655 -0.347686 1.003932 -6.375248 0.651170 -79.746112 -22.291500 13.023714 7.199575 -46.102917 -1.735518 -0.151806 -1.966343 -0.116037 15.264078 16.088356 4.219143 54.317410 15.175726 12.542674 2.655413 72.029154 4.737302 0.000000 0.000000 -0.000000 -3.471752 13.454043 -9.243495 -0.778654 -33.883109 -10.836818 0.000000 0.000000 -0.000000 -5.592890 -55.001179 -10.405677 -11.276822 -0.596384 19.221904 
3.207645 1.291079 -6.465917 174.362338 -23.339226 -177.740455 -0.000000 -0.000000 0.000000 -8.001081 1.103138 6.320401 -0.296594 -1.323798 1.105478 0.000000 0.000000 0.000000 0.505604 -1.295697 1.653225 0.122202 -28.132406 -3.099975 -0.357689 -0.928671 -0.323732 0.995800 -6.631644 0.715571 -79.493188 -22.450409 13.099925 7.647823 -48.928506 -2.104254 -0.139518 -1.900100 -0.125701 14.957030 16.369477 4.284720 54.282948 15.181086 12.592456 0.753978 72.582861 3.168923 0.000000 0.000000 -0.000000 -3.514339 13.216201 -9.996273 -1.112028 -33.436403 -9.773503 0.000000 0.000000 -0.000000 -5.627030 -55.279011 -10.466900 -10.570020 0.557185 19.382923 
3.297528 1.346594 -6.582517 174.143361 -23.177890 -177.602027 -0.000000 -0.000000 0.000000 -8.214317 1.214126 6.522367 -0.331861 -1.262279 1.105948 0.000000 0.000000 0.000000 0.490877 -1.257780 1.620476 -0.114390 -26.919383 -3.893656 -0.367728 -0.867154 -0.311032 1.007324 -6.806257 0.733198 -79.185992 -22.554260 13.312836 8.283733 -52.064658 -2.606544 -0.135144 -1.835036 -0.140487 14.694003 16.702853 4.390885 54.208305 15.219035 12.452459 -1.080283 73.337510 1.589853 0.000000 0.000000 -0.000000 -3.580914 12.986448 -10.777260 -1.457108 -32.975670 -8.675807 0.000000 0.000000 -0.000000 -5.746827 -55.768503 -10.457154 -9.826366 1.493842 19.550563 
3.391773 1.396790 -6.695184 173.892466 -23.158613 -177.419471 -0.000000 -0.000000 0.000000 -8.407435 1.277540 6.719487 -0.387019 -1.214324 1.109125 0.000000 0.000000 0.000000 0.453736 -1.226097 1.593944 -0.324439 -25.569982 -4.857314 -0.392572 -0.805524 -0.299167 1.035915 -6.995583 0.753200 -78.817607 -22.614437 13.521177 9.084861 -55.275273 -3.268635 -0.145659 -1.768639 -0.156845 14.449744 17.099582 4.538661 54.122499 15.311632 12.151082 -2.949318 74.316396 0.033917 0.000000 0.000000 -0.000000 -3.732573 12.708052 -11.650244 -1.840095 -32.604006 -7.504317 0.000000 0.000000 -0.000000 -5.840498 -56.419670 -10.449262 -9.055064 2.337342 19.733217 
3.488359 1.443687 -6.804635 173.603695 -23.167571 -177.195804 -0.000000 -0.000000 0.000000 -8.622902 1.265323 6.932780 -0.458035 -1.178799 1.124634 0.000000 0.000000 0.000000 0.404991 -1.197688 1.560175 -0.527757 -24.088460 -6.008315 -0.429443 -0.751959 -0.290544 1.080171 -7.198057 0.775843 -78.454889 -22.655229 13.673169 10.015819 -58.278743 -4.035881 -0.168725 -1.706838 -0.173136 14.227675 17.591107 4.680130 54.010182 15.361279 11.680728 -3.728782 75.451882 -0.671871 0.000000 0.000000 -0.000000 -3.938953 12.486342 -12.566555 -2.285140 -32.489864 -6.308446 0.000000 0.000000 -0.000000 -5.919439 -57.234395 -10.410938 -8.178055 3.250704 19.898278 
3.588085 1.487327 -6.910479 173.367868 -23.488993 -176.969217 -0.000000 -0.000000 0.000000 -8.906860 1.149253 7.178617 -0.546325 -1.147822 1.153569 0.000000 0.000000 0.000000 0.347321 -1.176311 1.512663 -0.512235 -22.546639 -7.290454 -0.475271 -0.734673 -0.281895 1.153473 -7.435437 0.806909 -78.110148 -22.720210 13.699360 11.021447 -60.849233 -4.864082 -0.206207 -1.649442 -0.197184 14.047280 18.156118 4.810590 53.883888 15.395091 11.087430 -4.226901 76.779198 -1.072560 0.000000 0.000000 -0.000000 -4.153173 12.366442 -13.403441 -2.770327 -32.492905 -5.097450 0.000000 0.000000 -0.000000 -6.099632 -58.209074 -10.232539 -7.162150 4.225943 19.999619 
3.693544 1.529235 -7.012919 173.152415 -24.043824 -176.772321 -0.000000 -0.000000 0.000000 -9.306437 0.944098 7.447733 -0.653381 -1.126321 1.191626 0.000000 0.000000 0.000000 0.268403 -1.167840 1.461154 -0.459706 -20.834746 -8.662311 -0.527739 -0.720706 -0.276929 1.257626 -7.691293 0.844284 -77.779865 -22.761192 13.595711 11.991144 -62.863436 -5.652762 -0.254839 -1.598156 -0.228715 13.900456 18.786926 4.913811 53.840733 15.396846 10.685591 -4.822583 78.276744 -1.587561 0.000000 0.000000 -0.000000 -4.363982 12.365521 -14.078154 -3.366823 -32.512651 -3.834303 0.000000 0.000000 -0.000000 -6.327718 -59.143585 -10.008765 -5.940187 5.305455 20.044019 
